<svg width="675" height="468" viewBox="0 0 675 468" fill="none" xmlns="http://www.w3.org/2000/svg">
<path d="M328.101 454.402L30.3517 278.162C20.8752 272.836 12.7406 264.142 21.9852 258.335L320.811 85.7787C325.301 82.9912 332.11 81.1661 336.666 83.8208L649.227 265.569C658.704 271.078 660.41 286.475 650.884 292L367.399 454.12C361.44 457.588 354.68 459.439 347.787 459.488C340.895 459.537 334.109 457.784 328.101 454.402Z" fill="#E15AE5"/>
<path style="mix-blend-mode:multiply" d="M339.781 287.304L278.233 326.694L297.253 336.914L345.563 302.619" fill="url(#paint0_linear_2_226)"/>
<path style="mix-blend-mode:multiply" d="M155.253 340.83C163.537 336.383 275.599 259.529 275.599 259.529C274.456 256.112 198.097 236.301 169.916 254.303L84.0964 303.282L155.253 340.83Z" fill="url(#paint1_linear_2_226)"/>
<path d="M211.45 119.427L139.001 273.699L143.954 276.785L216.453 123.111L211.45 119.427Z" fill="#565EC0"/>
<path d="M214.979 121.717C214.979 121.717 203.978 191.668 183.285 209.803C162.593 227.938 120.545 244.796 120.545 244.796L178.762 279.772C178.762 279.772 262.196 262.284 265.427 154.751L214.979 121.717Z" fill="#68E1FD"/>
<path d="M265.41 154.751L192.977 309.023L197.931 312.109L270.43 158.435L265.41 154.751Z" fill="#565EC0"/>
<path d="M268.061 259.529L250.466 186.575L245.065 198.106L262.544 259.529H268.061Z" fill="#403D8C"/>
<path d="M214.946 262.217L275.599 249.973V259.529L212.809 270.58L214.946 262.217Z" fill="#403D8C"/>
<path d="M203.779 294.223C202.272 293.228 147.052 262.483 147.052 262.483L143.54 270.53L200.797 303.233L203.779 294.223Z" fill="#403D8C"/>
<path style="mix-blend-mode:multiply" d="M529.511 297.558L426.627 321.583L462.098 353.539L540.959 305.771C538.606 302.154 532.41 300.76 529.511 297.558Z" fill="url(#paint2_linear_2_226)"/>
<path d="M531.632 46.7876C531.632 46.7876 531.632 46.6715 531.632 46.6051C531.632 46.5387 531.632 46.323 531.632 46.1903C531.201 42.6728 536.188 42.4571 537.364 45.3773C537.418 45.5006 537.463 45.6283 537.496 45.7589C537.551 45.8937 537.595 46.0324 537.629 46.1737C540.762 71.913 542.223 97.8288 542.003 123.758C541.976 124.417 541.736 125.05 541.319 125.56C540.901 126.071 540.329 126.431 539.688 126.587C539.048 126.742 538.375 126.685 537.77 126.423C537.165 126.161 536.662 125.709 536.337 125.135C535.881 125.443 535.353 125.626 534.805 125.667C534.256 125.709 533.707 125.606 533.21 125.37C532.714 125.134 532.287 124.772 531.972 124.321C531.658 123.869 531.466 123.344 531.416 122.795C529.589 97.4897 529.661 72.0824 531.632 46.7876Z" fill="#AB9E5A"/>
<path d="M473.132 105.457C473.347 105.059 473.662 104.793 473.911 104.428C473.815 103.772 473.982 103.104 474.375 102.57C488.871 81.8796 516.141 90.3581 528.55 108.045C532.065 111.993 534.266 116.94 534.846 122.198C535.276 125.782 530.091 125.931 529.047 122.829C528.699 122.468 528.453 122.021 528.335 121.534C527.328 117.707 525.589 114.112 523.215 110.949C518.775 106.635 512.397 104.146 506.118 102.885C498.149 101.226 483.106 99.6827 478.318 108.493C476.462 111.878 471.293 108.858 473.132 105.457Z" fill="#575C1C"/>
<path d="M466.605 85.2975C491.224 68.4733 531.052 90.6401 534.531 119.062C534.595 119.437 534.571 119.821 534.461 120.185C534.351 120.549 534.159 120.882 533.899 121.159C533.639 121.435 533.318 121.648 532.962 121.779C532.606 121.91 532.224 121.957 531.847 121.916C531.546 122.096 531.209 122.207 530.86 122.242C530.511 122.277 530.158 122.234 529.828 122.117C529.497 122 529.196 121.811 528.947 121.564C528.697 121.317 528.505 121.018 528.384 120.688C518.079 96.8289 497.586 79.7724 470.68 90.1755C470.491 90.2298 470.297 90.2632 470.1 90.2751L469.719 90.4908C466.439 92.6643 463.49 87.4545 466.605 85.2975Z" fill="#636D27"/>
<path d="M481.2 69.1369C481.346 68.9473 481.513 68.7748 481.697 68.6226C482.398 68.0893 483.202 67.709 484.058 67.5061C484.914 67.3032 485.803 67.2822 486.668 67.4445C515.694 64.6903 539.402 93.9916 539.683 121.567C539.692 121.985 539.609 122.4 539.438 122.781C539.268 123.162 539.015 123.501 538.698 123.772C538.381 124.044 538.007 124.241 537.605 124.351C537.202 124.46 536.78 124.479 536.37 124.405C535.98 124.709 535.524 124.916 535.038 125.007C534.553 125.099 534.053 125.073 533.579 124.932C533.106 124.791 532.673 124.538 532.317 124.195C531.961 123.852 531.692 123.429 531.532 122.961C527.523 110.7 525.137 97.3432 515.909 87.7033C511.555 83.2491 506.286 79.7953 500.468 77.5809C494.649 75.3664 488.42 74.4441 482.211 74.8777C478.699 75.0768 478.4 70.2486 481.2 69.1369Z" fill="#746927"/>
<path d="M495.581 55.4653C496.178 55.1251 496.875 55.002 497.552 55.1168C526.794 60.0944 538.971 87.355 539.849 114.566C539.849 115.229 539.982 115.877 540.015 116.524C540.23 120.39 534.233 120.373 534.017 116.524C534.017 116.524 534.017 116.374 534.017 116.308C533.973 116.167 533.94 116.023 533.918 115.877C533.918 115.445 533.918 115.014 533.918 114.566C531.946 90.3913 519.455 67.9424 494.753 61.289C491.224 60.3765 492.383 55.3491 495.581 55.4653Z" fill="#7D7A33"/>
<path d="M537.364 46.7876C537.364 46.7876 537.364 46.6715 537.364 46.6051C537.364 46.5387 537.364 46.323 537.364 46.1903C537.795 42.6728 532.808 42.4571 531.632 45.3773C531.577 45.5006 531.533 45.6283 531.499 45.7589C531.445 45.8937 531.4 46.0324 531.366 46.1737C528.234 71.913 526.773 97.8288 526.993 123.758C527.019 124.417 527.259 125.05 527.677 125.56C528.094 126.071 528.667 126.431 529.307 126.587C529.947 126.742 530.621 126.685 531.226 126.423C531.83 126.161 532.333 125.709 532.659 125.135C533.116 125.431 533.642 125.604 534.186 125.638C534.729 125.671 535.273 125.563 535.762 125.324C536.252 125.086 536.672 124.724 536.982 124.276C537.291 123.827 537.48 123.305 537.53 122.762C539.371 97.4688 539.316 72.0727 537.364 46.7876Z" fill="#AB9E5A"/>
<path d="M595.863 105.457C595.648 105.059 595.333 104.793 595.085 104.428C595.18 103.772 595.013 103.104 594.621 102.57C580.124 81.8796 552.854 90.3581 540.445 108.045C536.93 111.993 534.73 116.94 534.15 122.198C533.719 125.782 538.905 125.931 539.948 122.829C540.296 122.468 540.542 122.021 540.661 121.534C541.667 117.707 543.406 114.112 545.78 110.949C550.22 106.635 556.599 104.146 562.878 102.885C570.847 101.226 585.89 99.6827 590.678 108.493C592.533 111.878 597.686 108.858 595.863 105.457Z" fill="#575C1C"/>
<path d="M602.391 85.2975C577.772 68.4733 537.944 90.6401 534.465 119.062C534.401 119.437 534.425 119.821 534.534 120.185C534.644 120.549 534.837 120.882 535.097 121.159C535.357 121.435 535.678 121.648 536.034 121.779C536.39 121.91 536.771 121.957 537.148 121.916C537.45 122.096 537.787 122.207 538.136 122.242C538.485 122.277 538.837 122.234 539.168 122.117C539.498 122 539.799 121.811 540.049 121.564C540.298 121.317 540.49 121.018 540.611 120.688C550.916 96.8289 571.41 79.7724 598.315 90.1755C598.504 90.2298 598.699 90.2632 598.895 90.2751L599.276 90.4908C602.573 92.6643 605.572 87.4545 602.391 85.2975Z" fill="#636D27"/>
<path d="M587.745 69.1369C587.599 68.9473 587.433 68.7748 587.248 68.6226C586.548 68.0893 585.744 67.709 584.888 67.5061C584.032 67.3032 583.143 67.2822 582.278 67.4445C553.252 64.6903 529.544 93.9916 529.262 121.567C529.253 121.985 529.337 122.4 529.508 122.781C529.678 123.162 529.931 123.501 530.248 123.772C530.565 124.044 530.938 124.241 531.341 124.351C531.743 124.46 532.165 124.479 532.576 124.405C532.965 124.709 533.422 124.916 533.907 125.007C534.393 125.099 534.893 125.073 535.366 124.932C535.84 124.791 536.273 124.538 536.629 124.195C536.985 123.852 537.254 123.429 537.414 122.961C541.423 110.7 543.809 97.3432 553.037 87.7033C557.391 83.2491 562.66 79.7953 568.478 77.5809C574.296 75.3664 580.526 74.4441 586.735 74.8777C590.297 75.0768 590.595 70.2486 587.745 69.1369Z" fill="#746927"/>
<path d="M573.431 55.4653C572.834 55.1251 572.137 55.002 571.46 55.1168C542.218 60.0944 530.041 87.355 529.163 114.566C529.163 115.229 529.03 115.877 528.997 116.524C528.782 120.39 534.779 120.373 534.995 116.524C534.995 116.524 534.995 116.374 534.995 116.308C535.039 116.167 535.072 116.023 535.094 115.877C535.094 115.445 535.094 115.014 535.094 114.566C537.066 90.3913 549.557 67.9424 574.259 61.289C577.805 60.3765 576.612 55.3491 573.431 55.4653Z" fill="#7D7A33"/>
<path d="M526.844 305.091C528.878 306.351 531.185 307.102 533.57 307.281C536.125 307.332 538.655 306.763 540.942 305.622C541.198 305.508 541.414 305.322 541.564 305.086C541.714 304.849 541.792 304.574 541.787 304.295C541.539 266.946 539.832 114.483 539.832 114.483H528.335C528.335 114.483 529.03 128.287 529.776 141.03C530.025 145.095 527.208 269.219 526.844 305.091Z" fill="#974C13"/>
<path style="mix-blend-mode:multiply" d="M337.578 393.344L286.948 419.94L327.422 441.692L382.326 406.634" fill="url(#paint3_linear_2_226)"/>
<path d="M364.085 411.528C380.345 411.528 393.526 398.328 393.526 382.044C393.526 365.761 380.345 352.561 364.085 352.561C347.826 352.561 334.645 365.761 334.645 382.044C334.645 398.328 347.826 411.528 364.085 411.528Z" fill="#68E1FD"/>
<path opacity="0.58" d="M342.979 384.5C344.287 372.454 350.119 359.164 360.789 352.76C354.718 353.437 349.008 355.991 344.453 360.067C339.898 364.143 336.723 369.538 335.369 375.504C334.016 381.469 334.551 387.709 336.9 393.356C339.25 399.003 343.296 403.777 348.479 407.015C344.029 400.405 342.078 392.421 342.979 384.5Z" fill="#053855"/>
<path opacity="0.58" d="M372.369 405.34C374.123 398.898 374.943 392.237 374.805 385.562C374.073 373.942 370.671 362.648 364.864 352.561C358.453 357.273 356.117 367.493 354.659 374.727C351.991 387.885 353.234 400.544 361.07 411.362C362.088 411.47 363.111 411.525 364.135 411.528C366.478 411.524 368.812 411.251 371.093 410.715C371.574 408.923 371.988 407.098 372.369 405.34Z" fill="#053855"/>
<path opacity="0.58" d="M380.653 362.25C385.399 367.962 388.549 374.832 389.781 382.161C390.615 388.58 389.555 395.102 386.733 400.926C389.924 397.099 392.091 392.522 393.03 387.625C393.968 382.728 393.648 377.673 392.099 372.934C390.55 368.195 387.823 363.929 384.175 360.536C380.526 357.143 376.076 354.736 371.243 353.539C374.94 355.77 378.142 358.734 380.653 362.25Z" fill="#053855"/>
<path d="M345.729 218.332L335.275 301.939C338.493 303.468 342.172 303.711 345.563 302.619L355.255 217.685C352.157 219.194 348.496 220.14 345.729 218.332Z" fill="#974C13"/>
<path d="M354.775 221.849L370.828 81.05L362.992 80.3531L345.331 221.567C346.636 222.688 348.285 223.327 350.003 223.378C351.721 223.43 353.405 222.89 354.775 221.849Z" fill="#974C13"/>
<path d="M452.051 104.648C456.334 74.3212 418.991 43.9559 368.644 36.8256C318.298 29.6953 274.012 48.5001 269.73 78.8273C265.447 109.154 302.79 139.52 353.137 146.65C403.483 153.78 447.769 134.976 452.051 104.648Z" fill="#68E1FD"/>
<path opacity="0.61" d="M372.651 59.6629L294.27 125.102C294.27 125.102 323.081 147.053 366.72 147.318L372.651 59.6629Z" fill="#17619E"/>
<path opacity="0.61" d="M373.446 59.6132C369.221 58.4351 273.826 63.7611 273.826 63.7611C273.826 63.7611 291.852 34.0118 336.302 36.2849L373.446 59.6132Z" fill="#17619E"/>
<path opacity="0.61" d="M372.651 59.6629L413.854 51.3669C413.854 51.3669 453.732 67.9589 450.551 104.245L372.651 59.6629Z" fill="#17619E"/>
<defs>
<linearGradient id="paint0_linear_2_226" x1="345.513" y1="292.299" x2="299.877" y2="323.412" gradientUnits="userSpaceOnUse">
<stop stop-color="#808080"/>
<stop offset="1" stop-color="white"/>
</linearGradient>
<linearGradient id="paint1_linear_2_226" x1="268.889" y1="202.171" x2="149.05" y2="308.532" gradientUnits="userSpaceOnUse">
<stop stop-color="#808080"/>
<stop offset="1" stop-color="white"/>
</linearGradient>
<linearGradient id="paint2_linear_2_226" x1="525.999" y1="297.309" x2="459.658" y2="329.918" gradientUnits="userSpaceOnUse">
<stop stop-color="#808080"/>
<stop offset="1" stop-color="white"/>
</linearGradient>
<linearGradient id="paint3_linear_2_226" x1="372.137" y1="387.652" x2="318.226" y2="424.412" gradientUnits="userSpaceOnUse">
<stop stop-color="#808080"/>
<stop offset="1" stop-color="white"/>
</linearGradient>
</defs>
</svg>
